<svg width="149" height="89" viewBox="0 0 149 89" fill="none" xmlns="http://www.w3.org/2000/svg">
<rect width="149" height="88.6905" rx="3" fill="#E9EBED"/>
<path fill-rule="evenodd" clip-rule="evenodd" d="M51.8256 17.3161C51.5434 17.1255 51.1731 17.1279 50.8934 17.3221L30.5303 31.4571C30.3082 31.6112 30.1758 31.8644 30.1758 32.1348V36.8318C30.1758 37.1388 30.3463 37.4205 30.6184 37.5628C30.8904 37.7051 31.219 37.6846 31.4712 37.5095L33.2539 36.272V65.4711C33.2539 65.9268 33.6233 66.2961 34.0789 66.2961H39.3505C39.685 67.6653 40.7376 68.76 42.0977 69.0802V70.3434C42.0977 70.799 42.467 71.1684 42.9227 71.1684C43.3783 71.1684 43.7477 70.799 43.7477 70.3434V69.0802C45.1074 68.7599 46.1607 67.6644 46.4949 66.2943H46.7086H48.1433H48.1977C48.5317 67.6644 49.5847 68.7599 50.9453 69.0802V70.3434C50.9453 70.799 51.3147 71.1684 51.7703 71.1684C52.2259 71.1684 52.5953 70.799 52.5953 70.3434V69.0802C53.9556 68.76 55.0086 67.6644 55.3426 66.2943H56.6548C56.989 67.6643 58.0423 68.7597 59.4023 69.0801V70.3434C59.4023 70.799 59.7717 71.1684 60.2273 71.1684C60.683 71.1684 61.0523 70.799 61.0523 70.3434V69.0802C62.4121 68.7602 63.4647 67.6654 63.7992 66.2961H69.4651C69.5148 66.2961 69.5635 66.2917 69.6109 66.2833H116.969C117.409 66.2833 117.769 65.9331 117.781 65.4935L117.823 63.9535C117.83 63.6968 117.715 63.452 117.513 63.2932L113.244 59.9335V43.5306C113.244 43.5219 113.244 43.5132 113.243 43.5045L113.243 43.4948L113.242 43.4819V40.3756L117.742 40.373C118.13 40.3728 118.465 40.1026 118.548 39.7238C118.63 39.345 118.438 38.9598 118.085 38.7982L97.932 29.5533V26.4646C98.2196 26.3356 98.4198 26.0469 98.4198 25.7114V22.9534C98.4198 22.6179 98.2196 22.3292 97.932 22.2003V22.0784C97.932 21.6228 97.5627 21.2534 97.107 21.2534H93.6926C93.237 21.2534 92.8676 21.6228 92.8676 22.0784V22.1998C92.5796 22.3286 92.3789 22.6175 92.3789 22.9534V25.7114C92.3789 26.0473 92.5796 26.3363 92.8676 26.465V27.2301L88.3945 25.1782C88.2865 25.1287 88.1692 25.103 88.0505 25.103H63.3547L51.8256 17.3161ZM60.2277 61.5464C58.4028 61.5464 56.9304 62.9028 56.6085 64.6443H55.3888C55.0671 62.903 53.5958 61.5464 51.7706 61.5464C49.9447 61.5464 48.4732 62.9029 48.1514 64.6443H48.1433H46.7086H46.5412C46.2192 62.9029 44.7472 61.5464 42.923 61.5464C41.0965 61.5464 39.6245 62.9038 39.3035 64.6461H34.9039V35.1266L51.3702 23.6957L68.6401 35.3608V64.6461H63.8462C63.5252 62.9039 62.0535 61.5464 60.2277 61.5464ZM42.923 67.5254C41.9226 67.5254 41.0451 66.7393 40.9071 65.6595C40.9212 65.599 40.9287 65.5359 40.9287 65.4711C40.9287 65.3862 40.9159 65.3043 40.8921 65.2272C40.9578 64.0635 41.873 63.1964 42.923 63.1964C44.011 63.1964 44.9567 64.1308 44.9567 65.3614C44.9567 66.5916 44.0113 67.5254 42.923 67.5254ZM111.594 60.7016V62.7486C111.594 63.2042 111.963 63.5736 112.419 63.5736C112.874 63.5736 113.244 63.2042 113.244 62.7486V62L116.188 64.3171L116.179 64.6593H70.2901V61.6481H86.2109V62.7486C86.2109 63.2042 86.5803 63.5736 87.0359 63.5736C87.4916 63.5736 87.8609 63.2042 87.8609 62.7486V61.6481H109.553C110.008 61.6481 110.378 61.2787 110.378 60.8231V59.7448L111.594 60.7016ZM111.594 58.6351V44.3556H110.378V57.6783L111.594 58.6351ZM108.728 59.9981H87.8609V44.3556H108.728V59.9981ZM86.2109 59.9981V44.3556H70.2901V59.9981H71.875V46.6102C71.875 46.1545 72.2444 45.7852 72.7 45.7852H79.2113C79.6669 45.7852 80.0363 46.1545 80.0363 46.6102V59.9981H86.2109ZM87.0359 42.7056L87.0465 42.7056H111.592V40.3766L70.2901 40.4005V42.7056H87.0253L87.0359 42.7056ZM112.481 38.7261C112.46 38.7245 112.439 38.7236 112.417 38.7236C112.395 38.7236 112.374 38.7245 112.352 38.7262L70.2901 38.7505V36.4753L71.7041 37.4305C71.957 37.6013 72.2835 37.6185 72.553 37.4754C72.8225 37.3322 72.9909 37.052 72.9909 36.7468V32.0498C72.9909 31.7757 72.8548 31.5195 72.6277 31.3661L65.7976 26.753H87.8703L113.969 38.7252L112.481 38.7261ZM94.5176 27.987L96.282 28.7964V25.7114C96.282 25.3759 96.4823 25.0872 96.7698 24.9583V23.7066C96.4823 23.5776 96.282 23.2889 96.282 22.9534V22.9034H94.5176V22.9534C94.5176 23.2893 94.3169 23.5783 94.0289 23.707V24.9578C94.3169 25.0866 94.5176 25.3755 94.5176 25.7114V27.987ZM31.8258 32.5664L51.3702 18.9997L71.3409 32.4881V35.194L51.8256 22.0122C51.5434 21.8215 51.1731 21.8239 50.8934 22.0181L31.8258 35.2548V32.5664ZM42.5746 36.668C42.2108 36.668 41.89 36.9063 41.7848 37.2545L40.1446 42.6875C40.0691 42.9374 40.1164 43.2083 40.2721 43.4179C40.4277 43.6274 40.6733 43.751 40.9344 43.751H42.1563V50.7863V53.1186C42.1563 53.5742 42.5256 53.9436 42.9813 53.9436H60.2254C60.6811 53.9436 61.0504 53.5742 61.0504 53.1186V43.751H62.2338C62.4948 43.751 62.7405 43.6274 62.8961 43.4179C63.0517 43.2083 63.099 42.9374 63.0236 42.6875L61.3833 37.2545C61.2782 36.9063 60.9573 36.668 60.5935 36.668H42.5746ZM43.8063 50.7863V43.751H47.9062V52.1189C47.9062 52.1788 47.9126 52.2373 47.9248 52.2936H43.8063V50.7863ZM49.5377 52.2936C49.5499 52.2373 49.5563 52.1788 49.5563 52.1189V43.751H53.6562V52.1189C53.6562 52.1788 53.6626 52.2373 53.6748 52.2936H49.5377ZM59.4004 43.751H55.3063V52.1189C55.3063 52.1788 55.2999 52.2373 55.2877 52.2936H59.4004V43.751ZM60.2508 42.101H61.1229L59.9808 38.318H43.1873L42.0452 42.101H42.9559L42.9693 42.1007L42.9813 42.1006H60.2254C60.2339 42.1006 60.2424 42.1007 60.2508 42.101ZM73.525 47.4352V59.9972H78.3863V47.4352H73.525ZM92.2625 45.8481C91.8408 45.8481 91.499 46.19 91.499 46.6116V55.5996C91.499 56.0213 91.8408 56.3631 92.2625 56.3631H103.966C104.388 56.3631 104.73 56.0213 104.73 55.5996V46.6116C104.73 46.19 104.388 45.8481 103.966 45.8481H92.2625ZM93.026 54.8361V47.3751H95.3528V54.8361H93.026ZM96.9768 54.8361H99.2552V47.3751H96.9768V54.8361ZM103.203 54.8361H100.879V47.3751H103.203V54.8361ZM51.7706 63.1964C50.6807 63.1964 49.7359 64.1308 49.7359 65.3614C49.7359 66.5916 50.6803 67.5254 51.7706 67.5254C52.8598 67.5254 53.8044 66.5918 53.8044 65.3614C53.8044 64.1306 52.8594 63.1964 51.7706 63.1964ZM60.2277 63.1964C59.1385 63.1964 58.193 64.131 58.193 65.3614C58.193 66.5914 59.1382 67.5254 60.2277 67.5254C61.3168 67.5254 62.2614 66.5918 62.2614 65.3614C62.2614 64.1306 61.3165 63.1964 60.2277 63.1964Z" fill="#A5ADB5"/>
</svg>
