<svg xmlns="http://www.w3.org/2000/svg" viewBox="0 0 93.17 93.17"><defs><style>.cls-1{fill:#3c70b3;}.cls-2{fill:none;stroke:#fff;stroke-linecap:round;stroke-linejoin:round;stroke-width:4px;}</style></defs><g id="图层_2" data-name="图层 2"><g id="图层_1-2" data-name="图层 1"><circle class="cls-1" cx="46.59" cy="46.59" r="46.59"/><path class="cls-2" d="M61.37,46.31c-6.86-4.05-13.88,4.29-13.88,4.29s-7-8.34-13.89-4.29a11.45,11.45,0,0,0-5.28,13.38C29.9,64.35,39.6,75.28,47.49,78c7.89-2.71,17.58-13.64,19.16-18.3A11.43,11.43,0,0,0,61.37,46.31Z"/><path class="cls-2" d="M47.49,9.29,36.78,20.75l0-4.92-13.3.08.11,19L14.05,45.08H23V78H40.87l0-3.74C34.93,69.8,29.47,63.08,28.32,59.69A11.45,11.45,0,0,1,33.6,46.31c6.86-4.05,13.89,4.29,13.89,4.29s7-8.34,13.88-4.29a11.43,11.43,0,0,1,5.28,13.38c-1.15,3.39-6.58,10.08-12.49,14.53l0,3.77H72V45.08h9Z"/></g></g></svg>