<svg xmlns="http://www.w3.org/2000/svg" viewBox="0 0 97.17 97.17"><defs><style>.cls-1,.cls-2{fill:none;stroke:#fff;}.cls-1{stroke-miterlimit:10;stroke-width:4px;}.cls-2{stroke-linecap:round;stroke-linejoin:round;stroke-width:6px;}</style></defs><g id="图层_2" data-name="图层 2"><g id="图层_1-2" data-name="图层 1"><circle class="cls-1" cx="48.59" cy="48.59" r="46.59"/><path class="cls-2" d="M63.06,48.06c-7.15-4.23-14.47,4.47-14.47,4.47s-7.33-8.7-14.48-4.47A11.91,11.91,0,0,0,28.61,62c1.64,4.86,11.75,16.26,20,19.08,8.22-2.82,18.33-14.22,20-19.08A11.92,11.92,0,0,0,63.06,48.06Z"/><path class="cls-2" d="M48.59,9.46l-11.17,12,0-5.13-13.87.08.12,19.8L13.72,46.78h9.33V81.09H41.69l0-3.9C35.49,72.55,29.8,65.55,28.61,62a11.91,11.91,0,0,1,5.5-13.95c7.15-4.23,14.48,4.47,14.48,4.47s7.32-8.7,14.47-4.47A11.92,11.92,0,0,1,68.57,62c-1.2,3.53-6.86,10.51-13,15.15l0,3.93H74.13V46.78h9.33Z"/></g></g></svg>